<?xml version="1.0" standalone="no"?>
<!DOCTYPE svg PUBLIC "-//W3C//DTD SVG 20010904//EN"
 "http://www.w3.org/TR/2001/REC-SVG-20010904/DTD/svg10.dtd">
<svg version="1.0" xmlns="http://www.w3.org/2000/svg"
 width="225.000000pt" height="225.000000pt" viewBox="0 0 225.000000 225.000000"
 preserveAspectRatio="xMidYMid meet">

<g transform="translate(0.000000,225.000000) scale(0.100000,-0.100000)"
fill="#000000" stroke="none">
<path d="M280 1140 l0 -950 855 0 855 0 0 950 0 950 -855 0 -855 0 0 -950z
m1690 780 l0 -150 -840 0 -840 0 0 150 0 150 840 0 840 0 0 -150z m-256 -352
c3 -29 6 -95 6 -145 0 -82 -2 -93 -17 -93 -12 0 -27 19 -43 52 -30 62 -89 111
-163 134 -32 10 -104 18 -190 21 l-138 6 3 -476 c3 -446 4 -476 22 -495 10
-12 31 -23 47 -26 16 -3 43 -9 59 -12 17 -3 30 -12 30 -20 0 -12 -41 -14 -250
-14 -206 0 -250 2 -250 14 0 14 29 26 67 26 35 0 70 20 82 47 8 16 11 170 11
490 l0 466 -137 -6 c-147 -5 -206 -19 -276 -65 -39 -26 -87 -95 -87 -125 0
-12 -8 -17 -27 -17 l-26 0 6 98 c4 53 7 118 7 145 l0 47 629 0 628 0 7 -52z
m-90 -354 c43 -15 48 -15 65 0 35 32 41 21 41 -84 0 -106 -10 -126 -35 -66
-46 110 -155 155 -260 107 -85 -38 -127 -129 -127 -274 1 -130 42 -216 125
-259 54 -27 152 -30 191 -5 25 17 26 20 26 131 0 120 -4 131 -49 138 -14 1
-26 9 -29 16 -3 9 24 12 112 12 96 0 116 -3 116 -15 0 -8 -9 -15 -20 -15 -32
0 -40 -32 -40 -153 l0 -115 -42 -21 c-197 -94 -428 -12 -483 171 -21 72 -19
163 6 243 17 55 31 78 73 120 31 31 69 58 96 68 60 21 174 21 234 1z m-1224
-904 c10 0 22 -4 25 -10 4 -6 -8 -10 -29 -10 -35 0 -36 1 -36 38 0 51 14 64
18 18 2 -27 8 -36 22 -36z m125 30 c10 -22 15 -44 10 -48 -4 -4 -10 -1 -12 6
-6 15 -35 16 -51 0 -9 -9 -12 -9 -12 0 0 16 32 82 40 82 4 0 15 -18 25 -40z
m105 30 c0 -5 -4 -10 -10 -10 -5 0 -10 -16 -10 -35 0 -19 -4 -35 -10 -35 -5 0
-10 16 -10 35 0 25 -4 35 -16 35 -8 0 -12 5 -9 10 3 6 19 10 36 10 16 0 29 -4
29 -10z m105 0 c4 -6 -5 -10 -19 -10 -14 0 -26 -4 -26 -10 0 -5 9 -10 20 -10
28 0 25 -20 -2 -21 -21 -1 -21 -2 -3 -6 38 -9 40 -23 2 -23 -36 0 -37 1 -37
38 0 21 3 42 7 45 10 11 51 8 58 -3z m88 -5 c9 11 16 14 20 8 4 -6 0 -16 -8
-23 -12 -10 -12 -15 2 -36 17 -26 3 -33 -17 -9 -11 13 -14 13 -25 -2 -8 -10
-17 -15 -21 -11 -4 5 0 16 10 27 15 16 15 20 1 31 -8 7 -12 17 -8 23 4 6 11 3
20 -8 13 -18 13 -18 26 0z m137 -31 c0 -27 -4 -43 -10 -39 -17 11 -11 85 7 85
2 0 3 -21 3 -46z m104 14 c-3 11 -1 23 5 26 7 5 11 -8 11 -38 0 -25 -2 -46 -5
-46 -3 0 -17 12 -30 28 -21 24 -23 24 -19 6 3 -12 1 -25 -5 -28 -7 -5 -11 9
-11 40 l0 48 29 -28 c25 -24 29 -26 25 -8z m125 13 c25 -25 17 -59 -15 -67
-38 -10 -49 0 -47 42 1 22 2 40 2 42 3 10 45 -2 60 -17z m92 -51 c15 0 19 7
19 36 0 21 4 33 10 29 14 -9 13 -58 -2 -73 -17 -17 -55 -15 -62 4 -8 22 -8 59
2 68 4 4 8 -8 10 -28 3 -28 8 -36 23 -36z m123 64 c22 -9 10 -23 -14 -17 -29
8 -25 -6 6 -17 16 -7 24 -16 22 -28 -4 -20 -45 -29 -61 -13 -8 8 -3 11 19 12
28 0 28 1 7 11 -22 11 -30 37 -16 51 8 9 17 9 37 1z m116 -4 c0 -5 -4 -10 -10
-10 -5 0 -10 -16 -10 -35 0 -19 -4 -35 -10 -35 -5 0 -10 16 -10 35 0 24 -5 35
-15 35 -8 0 -15 5 -15 10 0 6 16 10 35 10 19 0 35 -4 35 -10z m97 2 c6 -4 11
-24 10 -45 -1 -38 -13 -49 -23 -22 -4 8 -10 15 -15 15 -5 0 -9 -7 -9 -15 0 -8
-4 -15 -10 -15 -5 0 -10 20 -10 45 0 40 2 45 23 45 12 0 27 -4 34 -8z m73 -37
c0 -25 -4 -45 -10 -45 -5 0 -10 20 -10 45 0 25 5 45 10 45 6 0 10 -20 10 -45z
m105 35 c4 -6 -5 -10 -19 -10 -14 0 -26 -4 -26 -10 0 -5 9 -10 20 -10 28 0 25
-20 -2 -21 -21 -1 -21 -2 -3 -6 38 -9 40 -23 2 -23 -36 0 -37 1 -37 38 0 21 3
42 7 45 10 11 51 8 58 -3z m89 4 c22 -9 10 -23 -14 -17 -29 8 -25 -6 6 -17 16
-7 24 -16 22 -28 -4 -21 -46 -29 -62 -11 -8 9 -6 10 11 6 13 -3 26 -1 29 4 3
5 1 9 -3 9 -5 0 -18 6 -28 14 -16 12 -17 16 -6 30 15 18 21 19 45 10z"/>
<path d="M1020 1987 c-82 -41 -26 -166 64 -140 27 7 31 14 34 46 3 35 2 37
-27 37 -21 0 -31 -5 -31 -15 0 -8 7 -15 15 -15 20 0 19 -16 -1 -24 -24 -9 -54
12 -54 38 0 31 24 50 55 44 14 -3 30 1 36 8 9 11 5 16 -16 24 -34 13 -45 12
-75 -3z"/>
<path d="M1300 1972 c-33 -33 -36 -48 -19 -86 23 -50 103 -57 134 -13 34 48 7
112 -52 123 -27 5 -37 1 -63 -24z m85 -52 c0 -29 -4 -36 -23 -38 -43 -6 -69
37 -40 66 7 7 24 12 38 10 21 -3 25 -8 25 -38z"/>
<path d="M1783 1990 c-17 -7 -23 -18 -23 -39 0 -25 6 -31 41 -45 28 -11 39
-20 32 -27 -6 -6 -19 -6 -38 1 -22 8 -30 8 -36 -2 -13 -20 45 -44 78 -32 57
20 56 68 -3 87 -36 12 -37 13 -30 26 4 7 15 7 31 1 17 -7 25 -5 29 6 4 9 -3
18 -20 24 -30 12 -32 12 -61 0z"/>
<path d="M471 1918 c2 -77 6 -69 11 20 2 28 0 52 -4 52 -5 0 -7 -33 -7 -72z"/>
<path d="M575 1970 c-26 -28 -15 -31 12 -3 12 13 19 23 14 23 -4 0 -16 -9 -26
-20z"/>
<path d="M668 1974 c12 -8 22 -23 23 -32 0 -11 2 -13 6 -4 6 14 -24 52 -41 52
-6 0 0 -7 12 -16z"/>
<path d="M822 1983 c9 -2 20 -13 23 -24 4 -11 9 -18 12 -16 10 10 -18 47 -35
46 -16 -1 -16 -2 0 -6z"/>
<path d="M1150 1918 l0 -73 55 3 c39 3 55 8 55 18 0 9 -12 14 -35 14 l-35 0 0
55 c0 48 -2 55 -20 55 -18 0 -20 -7 -20 -72z"/>
<path d="M1461 1938 c12 -29 25 -63 30 -75 14 -38 38 -27 63 30 38 86 40 97
18 97 -14 0 -24 -13 -37 -47 l-18 -47 -17 45 c-12 30 -24 45 -39 47 l-21 3 21
-53z"/>
<path d="M1610 1920 l0 -70 60 0 c47 0 60 3 60 15 0 11 -11 15 -41 15 -52 0
-48 24 4 28 20 2 37 7 37 12 0 5 -17 10 -37 12 -52 4 -56 28 -4 28 30 0 41 4
41 15 0 12 -13 15 -60 15 l-60 0 0 -70z"/>
<path d="M768 1903 c12 -2 30 -2 40 0 9 3 -1 5 -23 4 -22 0 -30 -2 -17 -4z"/>
<path d="M560 1891 c0 -22 40 -51 68 -50 l27 2 -27 4 c-15 2 -37 16 -48 30
-11 14 -20 21 -20 14z"/>
<path d="M677 1874 c-13 -18 -14 -22 -3 -18 8 3 17 13 20 21 10 25 3 23 -17
-3z"/>
<path d="M1140 335 c0 -18 5 -25 19 -25 23 0 34 23 18 39 -19 19 -37 12 -37
-14z"/>
<path d="M1580 350 c0 -5 7 -10 15 -10 8 0 15 5 15 10 0 6 -7 10 -15 10 -8 0
-15 -4 -15 -10z"/>
</g>
</svg>
